<?xml version="1.0" encoding="utf-8"?>
<!-- Generator: Adobe Illustrator 25.4.2, SVG Export Plug-In . SVG Version: 6.00 Build 0)  -->
<!DOCTYPE svg PUBLIC "-//W3C//DTD SVG 1.1//EN" "http://www.w3.org/Graphics/SVG/1.1/DTD/svg11.dtd" [
	<!ENTITY ns_extend "http://ns.adobe.com/Extensibility/1.0/">
	<!ENTITY ns_ai "http://ns.adobe.com/AdobeIllustrator/10.0/">
	<!ENTITY ns_graphs "http://ns.adobe.com/Graphs/1.0/">
	<!ENTITY ns_vars "http://ns.adobe.com/Variables/1.0/">
	<!ENTITY ns_imrep "http://ns.adobe.com/ImageReplacement/1.0/">
	<!ENTITY ns_sfw "http://ns.adobe.com/SaveForWeb/1.0/">
	<!ENTITY ns_custom "http://ns.adobe.com/GenericCustomNamespace/1.0/">
	<!ENTITY ns_adobe_xpath "http://ns.adobe.com/XPath/1.0/">
]>
<svg version="1.1" id="Capa_1" xmlns:x="&ns_extend;" xmlns:i="&ns_ai;" xmlns:graph="&ns_graphs;"
	 xmlns="http://www.w3.org/2000/svg" xmlns:xlink="http://www.w3.org/1999/xlink" x="0px" y="0px" viewBox="0 0 210.9 200.5"
	 style="enable-background:new 0 0 210.9 200.5;" xml:space="preserve">
<style type="text/css">
	.st0{opacity:0.5;}
	.st1{fill:#A7BB61;}
</style>
<metadata>
	<sfw  xmlns="&ns_sfw;">
		<slices></slices>
		<sliceSourceBounds  bottomLeftOrigin="true" height="200.5" width="210.9" x="13.3" y="48.1"></sliceSourceBounds>
	</sfw>
</metadata>
<g class="st0">
	<path class="st1" d="M179,175.7c4.2,3.6,8.2,6.8,11.9,9.5c3.4,2.4,6.9,4.6,10.4,6.6c3.6,2,6.8,3,9.5,3v3h-16.7
		c-7.6,0-14.2-1.4-20-4.3c-5.8-2.9-11.2-6.3-16.4-10.3l-29.5-23.3c-10.7,14.5-21.8,24.9-33.3,31.2c-11.4,6.3-24.1,9.4-38,9.4
		c-9,0-17-1.3-24-4c-7.1-2.7-13-6.3-17.9-10.7c-4.9-4.5-8.6-9.7-11.2-15.7c-2.6-6-3.9-12.1-3.9-18.5c0-13.7,3.5-25.4,10.4-35.1
		c7-9.6,18.6-18.3,34.9-26.1c-9.5-8-16.9-15.8-22.1-23.6c-5.2-7.8-7.8-15.8-7.8-24.2c0-5.8,1.1-11.2,3.3-16.4
		c2.2-5.2,5.3-9.7,9.2-13.6c4-3.9,8.6-7,13.9-9.2C47.2,1.1,53,0,59.4,0c7.6,0,14.2,1.3,20,3.9C85.1,6.5,90,9.8,94,14
		c4,4.2,7,9,8.9,14.5c2,5.5,3,11,3,16.6c0,7.4-2.3,15-6.9,23c-4.6,8-12.5,15.2-23.9,21.8c9.1,7.6,18.6,15.4,28.3,23.6
		c9.7,8.2,19.4,16,28.9,23.6c4-8,7.2-15.9,9.7-23.9c2.5-8,4.5-15.3,6-21.9c1.5-6.7,2.5-12.5,3-17.5c0.5-5,0.7-8.5,0.7-10.7
		c0-2.6-1-4.9-3-7c-2-2.1-4.2-3.1-6.6-3.1v-3H173v3c-2,0-4,0.9-6.1,2.8c-2.1,1.9-3.3,4.2-3.7,7C162,73,160.3,83,158.1,92.8
		c-1.8,8.4-4.2,17.1-7.2,26.3c-3,9.2-6.7,17.1-11,23.9c4,3.8,8.3,7.6,12.8,11.3c4.6,3.8,9,7.5,13.4,11L179,175.7z M65.6,190
		c9.7,0,19.4-3.4,29.1-10.1c9.6-6.8,18.4-15.5,26.4-26.3c-10.9-9.1-22.1-18.4-33.4-27.9c-11.3-9.4-22.5-18.6-33.4-27.6
		c-12.1,5.8-21.1,12.9-26.8,21.5c-5.8,8.6-8.7,17.2-8.7,26c0,5.4,1.2,10.6,3.6,15.8c2.4,5.2,5.7,9.8,9.8,14
		c4.2,4.2,9.1,7.6,14.9,10.3C52.9,188.4,59.1,189.8,65.6,190z M34,41.8c1.4,7,5.3,13.8,11.6,20.6c6.4,6.8,13.2,13.2,20.6,19.4
		c7.8-3.2,13.7-8,17.9-14.5c4.2-6.5,6.3-12.8,6.3-18.9c0-4.8-0.7-9.4-2.2-14c-1.5-4.6-3.7-8.7-6.6-12.4c-2.9-3.7-6.6-6.7-11-9
		c-4.5-2.3-9.7-3.4-15.7-3.4c-6.6,0-11.8,2.6-15.7,7.8c-3.9,5.2-5.8,11.3-5.8,18.5c0,1,0,2,0,3C33.4,39.8,33.6,40.8,34,41.8z"/>
</g>
</svg>
