<?xml version="1.0" encoding="utf-8"?>
<!-- Generator: Adobe Illustrator 25.4.2, SVG Export Plug-In . SVG Version: 6.00 Build 0)  -->
<!DOCTYPE svg PUBLIC "-//W3C//DTD SVG 1.1//EN" "http://www.w3.org/Graphics/SVG/1.1/DTD/svg11.dtd" [
	<!ENTITY ns_extend "http://ns.adobe.com/Extensibility/1.0/">
	<!ENTITY ns_ai "http://ns.adobe.com/AdobeIllustrator/10.0/">
	<!ENTITY ns_graphs "http://ns.adobe.com/Graphs/1.0/">
	<!ENTITY ns_vars "http://ns.adobe.com/Variables/1.0/">
	<!ENTITY ns_imrep "http://ns.adobe.com/ImageReplacement/1.0/">
	<!ENTITY ns_sfw "http://ns.adobe.com/SaveForWeb/1.0/">
	<!ENTITY ns_custom "http://ns.adobe.com/GenericCustomNamespace/1.0/">
	<!ENTITY ns_adobe_xpath "http://ns.adobe.com/XPath/1.0/">
]>
<svg version="1.1" id="Capa_1" xmlns:x="&ns_extend;" xmlns:i="&ns_ai;" xmlns:graph="&ns_graphs;"
	 xmlns="http://www.w3.org/2000/svg" xmlns:xlink="http://www.w3.org/1999/xlink" x="0px" y="0px" viewBox="0 0 35.5 31.1"
	 style="enable-background:new 0 0 35.5 31.1;" xml:space="preserve">
<style type="text/css">
	.st0{fill:url(#SVGID_1_);}
</style>
<metadata>
	<sfw  xmlns="&ns_sfw;">
		<slices></slices>
		<sliceSourceBounds  bottomLeftOrigin="true" height="31.1" width="35.5" x="0" y="0"></sliceSourceBounds>
	</sfw>
</metadata>
<g>
	
		<linearGradient id="SVGID_1_" gradientUnits="userSpaceOnUse" x1="-7322.0767" y1="-105.6667" x2="-7250.9658" y2="-83.4444" gradientTransform="matrix(1 0 0 1 7296.7236 106.2717)">
		<stop  offset="0" style="stop-color:#2E4D06"/>
		<stop  offset="0.1315" style="stop-color:#57781A"/>
		<stop  offset="0.3994" style="stop-color:#A6CB41"/>
		<stop  offset="0.6788" style="stop-color:#A6CB41"/>
		<stop  offset="0.7274" style="stop-color:#90B436"/>
		<stop  offset="0.8543" style="stop-color:#5B7D1C"/>
		<stop  offset="0.9489" style="stop-color:#3A5A0C"/>
		<stop  offset="1" style="stop-color:#2E4D06"/>
	</linearGradient>
	<path class="st0" d="M14.2,1.9c1.3,1.3,1.9,2.9,1.9,4.9c0,1.8-0.7,3.4-2.1,4.8c-1.4,1.3-3,2-4.8,1.9c-1.2,0-2.4-0.3-3.4-0.9
		c-0.7-0.7-1.1-0.4-1.1,0.8c0,1.3,0.1,2.4,0.4,3.3c0.7,2.4,2,4.7,3.9,6.8c1.8,2,4,3.5,6.4,4.4v3.2c-3.5-0.8-6.6-2.4-9.3-4.8
		c-2.7-2.5-4.6-5.6-5.5-9.3c-0.8-3.3-0.8-6.4,0.1-9.5C1.5,4.4,3,2.3,5.1,1c1.2-0.7,2.6-1,4.1-1C11.1,0,12.7,0.7,14.2,1.9z M33.6,2
		c1.3,1.3,1.9,2.9,1.9,4.9c0,1.8-0.7,3.4-2.1,4.8c-1.3,1.3-2.9,2-4.7,1.8c-1.2,0-2.4-0.3-3.4-0.9c-0.7-0.7-1.1-0.4-1.1,0.8
		c0,1.3,0.1,2.4,0.4,3.3c0.7,2.4,2,4.7,3.9,6.8c1.8,2,4,3.5,6.4,4.4v3.2c-3.5-0.8-6.6-2.4-9.3-4.8c-2.7-2.5-4.6-5.6-5.5-9.3
		c-0.8-3.3-0.8-6.4,0.1-9.5C21,4.4,22.5,2.3,24.6,1c1.2-0.7,2.6-1,4.1-1C30.6,0,32.2,0.7,33.6,2z"/>
</g>
</svg>
